<?xml version="1.0" encoding="utf-8"?>
<!-- Generator: Adobe Illustrator 25.2.3, SVG Export Plug-In . SVG Version: 6.00 Build 0)  -->
<svg version="1.1" xmlns="http://www.w3.org/2000/svg" xmlns:xlink="http://www.w3.org/1999/xlink" x="0px" y="0px" width="550.6px"
	 height="168.1px" viewBox="0 0 550.6 168.1" style="enable-background:new 0 0 550.6 168.1;" xml:space="preserve">
<style type="text/css">
	.st0{fill:#4C56AF;}
	.st1{fill:#51C7F4;}
</style>
<g id="Layer_4">
	<g>
		<path d="M163,50.1c0.2,5.3-3.7,9.6-10,9.6c-5.5,0-9.4-4.3-9.4-9.6c0-5.5,4.1-9.8,9.8-9.8C159.2,40.3,163,44.6,163,50.1z
			 M145.5,160.6V74.3h15.7v86.2H145.5z"/>
		<path d="M187.7,40.5h15.5v107.1h51.3v13h-66.8V40.5z"/>
		<path d="M367.5,99.3c0,41.3-25.1,63.2-55.8,63.2c-31.7,0-54-24.6-54-60.9c0-38.1,23.7-63.1,55.8-63.1
			C346.3,38.5,367.5,63.6,367.5,99.3z M274.3,101.2c0,25.7,13.9,48.6,38.3,48.6c24.6,0,38.5-22.6,38.5-49.9
			c0-23.9-12.5-48.8-38.3-48.8C287.1,51.2,274.3,74.9,274.3,101.2z"/>
		<path d="M385.5,141.7c6.9,4.3,17.1,7.8,27.8,7.8c15.9,0,25.1-8.4,25.1-20.5c0-11.2-6.4-17.6-22.6-23.9
			c-19.6-6.9-31.7-17.1-31.7-34c0-18.7,15.5-32.6,38.8-32.6c12.3,0,21.2,2.9,26.5,5.9l-4.3,12.6c-3.9-2.1-11.9-5.7-22.8-5.7
			c-16.4,0-22.6,9.8-22.6,18c0,11.2,7.3,16.7,23.9,23.2c20.3,7.8,30.6,17.6,30.6,35.3c0,18.5-13.7,34.6-42,34.6
			c-11.6,0-24.2-3.4-30.6-7.7L385.5,141.7z"/>
		<path d="M498.3,53.7h-36.5V40.5h88.9v13.2h-36.7v106.9h-15.7V53.7z"/>
	</g>
</g>
<g id="Layer_3">
	<circle class="st0" cx="53.4" cy="28.7" r="10.4"/>
	<path class="st0" d="M53.3,0C37.1,0,24,13.1,24,29.2c0,16.2,13.1,29.2,29.2,29.2s29.2-13.1,29.2-29.2C82.5,13.1,69.4,0,53.3,0z
		 M54.1,47.4c-9.9,0-18-8-18-18c0-9.9,8-18,18-18s18,8,18,18C72,39.3,64,47.4,54.1,47.4z"/>
</g>
<g id="Layer_2">
	<path class="st1" d="M54.1,168.1c0,0-11-0.5-17-25.2c-2.9-17.8-8.1-22.3-36.5-49.1c-3.5-14,8.4-10,15.2-5.8
		c6.8,4.2,20.2,14.2,22.6,17.8c2.4-0.8,4.7-1.6,5.5-4.2c0.3-5,0.8-71.6,0.8-71.6s1.8-5.8,8.4-5.8s9.7,3.4,9.7,7.9s0,40.9,0,40.9
		s2.4-6.6,7.6-6.6s10,2.4,10,6.3s0,8.7,0,8.7s2.1-7.9,7.1-7.9c5,0,11.3,1.3,11.3,6.3c0,5,0,9.4,0,9.4s1.6-6.6,8.7-6.6
		s8.4,3.7,8.4,5.8c0,2.1,0,53.2,0,53.2s-2.6,26.2-17.8,26.2S54.1,168.1,54.1,168.1z"/>
</g>
</svg>
