<?xml version="1.0" encoding="utf-8"?>
<!-- Generator: Adobe Illustrator 25.2.3, SVG Export Plug-In . SVG Version: 6.00 Build 0)  -->
<svg version="1.1" xmlns="http://www.w3.org/2000/svg" xmlns:xlink="http://www.w3.org/1999/xlink" x="0px" y="0px" width="500px"
	 height="500px" viewBox="0 0 500 500" style="enable-background:new 0 0 500 500;" xml:space="preserve">
<style type="text/css">
	.st0{fill:#4C56AF;}
	.st1{fill:#51C7F4;}
</style>
<g id="Layer_4">
</g>
<g id="Layer_3">
	<circle class="st0" cx="234.8" cy="150.1" r="10.4"/>
	<path class="st0" d="M234.6,121.4c-16.2,0-29.2,13.1-29.2,29.2c0,16.2,13.1,29.2,29.2,29.2s29.2-13.1,29.2-29.2
		C263.9,134.5,250.8,121.4,234.6,121.4z M235.4,168.8c-9.9,0-18-8-18-18c0-9.9,8-18,18-18s18,8,18,18
		C253.4,160.7,245.3,168.8,235.4,168.8z"/>
</g>
<g id="Layer_2">
	<path class="st1" d="M235.5,289.5c0,0-11-0.5-17-25.2c-2.9-17.8-8.1-22.3-36.5-49.1c-3.5-14,8.4-10,15.2-5.8
		c6.8,4.2,20.2,14.2,22.6,17.8c2.4-0.8,4.7-1.6,5.5-4.2c0.3-5,0.8-71.6,0.8-71.6s1.8-5.8,8.4-5.8c6.6,0,9.7,3.4,9.7,7.9
		s0,40.9,0,40.9s2.4-6.6,7.6-6.6s10,2.4,10,6.3s0,8.7,0,8.7s2.1-7.9,7.1-7.9c5,0,11.3,1.3,11.3,6.3s0,9.4,0,9.4s1.6-6.6,8.7-6.6
		s8.4,3.7,8.4,5.8c0,2.1,0,53.2,0,53.2s-2.6,26.2-17.8,26.2C264.1,289.5,235.5,289.5,235.5,289.5z"/>
</g>
</svg>
